<mxfile host="65bd71144e">
    <diagram id="C5RBs43oDa-KdzZeNtuy" name="Page-1">
        <mxGraphModel dx="1667" dy="1443" grid="1" gridSize="10" guides="1" tooltips="1" connect="1" arrows="1" fold="1" page="1" pageScale="1" pageWidth="2336" pageHeight="1654" math="0" shadow="0">
            <root>
                <mxCell id="WIyWlLk6GJQsqaUBKTNV-0"/>
                <mxCell id="WIyWlLk6GJQsqaUBKTNV-1" parent="WIyWlLk6GJQsqaUBKTNV-0"/>
                <mxCell id="O5edXU6aJBqtr2ZKTVR7-0" value="HyperParam (bf.math.Dimension)" style="swimlane;fontStyle=3;align=center;verticalAlign=top;childLayout=stackLayout;horizontal=1;startSize=26;horizontalStack=0;resizeParent=1;resizeLast=0;collapsible=1;marginBottom=0;rounded=0;shadow=1;strokeWidth=1;fillColor=#dae8fc;strokeColor=#6c8ebf;gradientColor=#ffffff;swimlaneFillColor=#ffffff;" parent="WIyWlLk6GJQsqaUBKTNV-1" vertex="1">
                    <mxGeometry x="80" y="400" width="300" height="70" as="geometry">
                        <mxRectangle x="230" y="140" width="160" height="26" as="alternateBounds"/>
                    </mxGeometry>
                </mxCell>
                <mxCell id="APIo7eAU6dJVi6nJBrz_-5" value="C_EVENT_VALUE_CHANGED = 'VALUE_CHANGED'" style="text;align=left;verticalAlign=top;spacingLeft=4;spacingRight=4;overflow=hidden;rotatable=0;points=[[0,0.5],[1,0.5]];portConstraint=eastwest;fontColor=default;" parent="O5edXU6aJBqtr2ZKTVR7-0" vertex="1">
                    <mxGeometry y="26" width="300" height="26" as="geometry"/>
                </mxCell>
                <mxCell id="O5edXU6aJBqtr2ZKTVR7-4" value="" style="line;html=1;strokeWidth=1;align=left;verticalAlign=middle;spacingTop=-1;spacingLeft=3;spacingRight=3;rotatable=0;labelPosition=right;points=[];portConstraint=eastwest;" parent="O5edXU6aJBqtr2ZKTVR7-0" vertex="1">
                    <mxGeometry y="52" width="300" height="8" as="geometry"/>
                </mxCell>
                <mxCell id="O5edXU6aJBqtr2ZKTVR7-9" style="edgeStyle=orthogonalEdgeStyle;rounded=0;orthogonalLoop=1;jettySize=auto;html=1;endArrow=block;endFill=1;fontColor=#0000FF;" parent="WIyWlLk6GJQsqaUBKTNV-1" source="O5edXU6aJBqtr2ZKTVR7-10" target="O5edXU6aJBqtr2ZKTVR7-0" edge="1">
                    <mxGeometry relative="1" as="geometry"/>
                </mxCell>
                <mxCell id="O5edXU6aJBqtr2ZKTVR7-10" value=" HyperParamSpace (bf.math.ESpace)" style="swimlane;fontStyle=3;align=center;verticalAlign=top;childLayout=stackLayout;horizontal=1;startSize=26;horizontalStack=0;resizeParent=1;resizeLast=0;collapsible=1;marginBottom=0;rounded=0;shadow=1;strokeWidth=1;fillColor=#dae8fc;strokeColor=#6c8ebf;gradientColor=#ffffff;swimlaneFillColor=#ffffff;" parent="WIyWlLk6GJQsqaUBKTNV-1" vertex="1">
                    <mxGeometry x="80" y="548" width="300" height="38" as="geometry">
                        <mxRectangle x="230" y="140" width="160" height="26" as="alternateBounds"/>
                    </mxGeometry>
                </mxCell>
                <mxCell id="O5edXU6aJBqtr2ZKTVR7-12" value="" style="line;html=1;strokeWidth=1;align=left;verticalAlign=middle;spacingTop=-1;spacingLeft=3;spacingRight=3;rotatable=0;labelPosition=right;points=[];portConstraint=eastwest;" parent="O5edXU6aJBqtr2ZKTVR7-10" vertex="1">
                    <mxGeometry y="26" width="300" height="8" as="geometry"/>
                </mxCell>
                <mxCell id="O5edXU6aJBqtr2ZKTVR7-31" style="edgeStyle=orthogonalEdgeStyle;rounded=0;orthogonalLoop=1;jettySize=auto;html=1;endArrow=block;endFill=1;" parent="WIyWlLk6GJQsqaUBKTNV-1" source="O5edXU6aJBqtr2ZKTVR7-29" target="O5edXU6aJBqtr2ZKTVR7-10" edge="1">
                    <mxGeometry relative="1" as="geometry"/>
                </mxCell>
                <mxCell id="O5edXU6aJBqtr2ZKTVR7-29" value=" HyperParamTuple (bf.math.Element)" style="swimlane;fontStyle=3;align=center;verticalAlign=top;childLayout=stackLayout;horizontal=1;startSize=26;horizontalStack=0;resizeParent=1;resizeLast=0;collapsible=1;marginBottom=0;rounded=0;shadow=1;strokeWidth=1;fillColor=#dae8fc;strokeColor=#6c8ebf;gradientColor=#ffffff;swimlaneFillColor=#ffffff;" parent="WIyWlLk6GJQsqaUBKTNV-1" vertex="1">
                    <mxGeometry x="80" y="668" width="300" height="38" as="geometry">
                        <mxRectangle x="230" y="140" width="160" height="26" as="alternateBounds"/>
                    </mxGeometry>
                </mxCell>
                <mxCell id="O5edXU6aJBqtr2ZKTVR7-30" value="" style="line;html=1;strokeWidth=1;align=left;verticalAlign=middle;spacingTop=-1;spacingLeft=3;spacingRight=3;rotatable=0;labelPosition=right;points=[];portConstraint=eastwest;" parent="O5edXU6aJBqtr2ZKTVR7-29" vertex="1">
                    <mxGeometry y="26" width="300" height="8" as="geometry"/>
                </mxCell>
                <mxCell id="UP2SmdmnmiDTw7j5yn1o-6" value="TrainingResults (bf.various.Persistent)" style="swimlane;fontStyle=3;align=center;verticalAlign=top;childLayout=stackLayout;horizontal=1;startSize=26;horizontalStack=0;resizeParent=1;resizeLast=0;collapsible=1;marginBottom=0;rounded=0;shadow=1;strokeWidth=1;fillColor=#dae8fc;strokeColor=#6c8ebf;gradientColor=#ffffff;swimlaneFillColor=#ffffff;" parent="WIyWlLk6GJQsqaUBKTNV-1" vertex="1">
                    <mxGeometry x="1400" y="1320" width="300" height="522" as="geometry">
                        <mxRectangle x="230" y="140" width="160" height="26" as="alternateBounds"/>
                    </mxGeometry>
                </mxCell>
                <mxCell id="UP2SmdmnmiDTw7j5yn1o-34" value="scenario: Scenario" style="text;align=left;verticalAlign=top;spacingLeft=4;spacingRight=4;overflow=hidden;rotatable=0;points=[[0,0.5],[1,0.5]];portConstraint=eastwest;" parent="UP2SmdmnmiDTw7j5yn1o-6" vertex="1">
                    <mxGeometry y="26" width="300" height="26" as="geometry"/>
                </mxCell>
                <mxCell id="PYtmdeU6_NjjEdoNpoMM-18" value="run: int" style="text;align=left;verticalAlign=top;spacingLeft=4;spacingRight=4;overflow=hidden;rotatable=0;points=[[0,0.5],[1,0.5]];portConstraint=eastwest;" parent="UP2SmdmnmiDTw7j5yn1o-6" vertex="1">
                    <mxGeometry y="52" width="300" height="26" as="geometry"/>
                </mxCell>
                <mxCell id="UP2SmdmnmiDTw7j5yn1o-8" value="ts_start, ts_end, duration" style="text;align=left;verticalAlign=top;spacingLeft=4;spacingRight=4;overflow=hidden;rotatable=0;points=[[0,0.5],[1,0.5]];portConstraint=eastwest;" parent="UP2SmdmnmiDTw7j5yn1o-6" vertex="1">
                    <mxGeometry y="78" width="300" height="26" as="geometry"/>
                </mxCell>
                <mxCell id="UP2SmdmnmiDTw7j5yn1o-9" value="cycle_id_start, cycle_id_end" style="text;align=left;verticalAlign=top;spacingLeft=4;spacingRight=4;overflow=hidden;rotatable=0;points=[[0,0.5],[1,0.5]];portConstraint=eastwest;" parent="UP2SmdmnmiDTw7j5yn1o-6" vertex="1">
                    <mxGeometry y="104" width="300" height="26" as="geometry"/>
                </mxCell>
                <mxCell id="xcaQaqvuv9AdEiCgPE8b-4" value="num_cycles: int" style="text;align=left;verticalAlign=top;spacingLeft=4;spacingRight=4;overflow=hidden;rotatable=0;points=[[0,0.5],[1,0.5]];portConstraint=eastwest;" parent="UP2SmdmnmiDTw7j5yn1o-6" vertex="1">
                    <mxGeometry y="130" width="300" height="26" as="geometry"/>
                </mxCell>
                <mxCell id="__xDNqv_vZQiCEkt3bh0-3" value="num_cycles_train: int" style="text;align=left;verticalAlign=top;spacingLeft=4;spacingRight=4;overflow=hidden;rotatable=0;points=[[0,0.5],[1,0.5]];portConstraint=eastwest;" parent="UP2SmdmnmiDTw7j5yn1o-6" vertex="1">
                    <mxGeometry y="156" width="300" height="26" as="geometry"/>
                </mxCell>
                <mxCell id="xcaQaqvuv9AdEiCgPE8b-3" value="num_cycles_eval: int" style="text;align=left;verticalAlign=top;spacingLeft=4;spacingRight=4;overflow=hidden;rotatable=0;points=[[0,0.5],[1,0.5]];portConstraint=eastwest;" parent="UP2SmdmnmiDTw7j5yn1o-6" vertex="1">
                    <mxGeometry y="182" width="300" height="26" as="geometry"/>
                </mxCell>
                <mxCell id="__xDNqv_vZQiCEkt3bh0-2" value="num_adaptations: int" style="text;align=left;verticalAlign=top;spacingLeft=4;spacingRight=4;overflow=hidden;rotatable=0;points=[[0,0.5],[1,0.5]];portConstraint=eastwest;" parent="UP2SmdmnmiDTw7j5yn1o-6" vertex="1">
                    <mxGeometry y="208" width="300" height="26" as="geometry"/>
                </mxCell>
                <mxCell id="UP2SmdmnmiDTw7j5yn1o-15" value="highscore: float" style="text;align=left;verticalAlign=top;spacingLeft=4;spacingRight=4;overflow=hidden;rotatable=0;points=[[0,0.5],[1,0.5]];portConstraint=eastwest;" parent="UP2SmdmnmiDTw7j5yn1o-6" vertex="1">
                    <mxGeometry y="234" width="300" height="26" as="geometry"/>
                </mxCell>
                <mxCell id="UP2SmdmnmiDTw7j5yn1o-39" value="path: str" style="text;align=left;verticalAlign=top;spacingLeft=4;spacingRight=4;overflow=hidden;rotatable=0;points=[[0,0.5],[1,0.5]];portConstraint=eastwest;" parent="UP2SmdmnmiDTw7j5yn1o-6" vertex="1">
                    <mxGeometry y="260" width="300" height="26" as="geometry"/>
                </mxCell>
                <mxCell id="PYtmdeU6_NjjEdoNpoMM-24" value="custom_results = []" style="text;align=left;verticalAlign=top;spacingLeft=4;spacingRight=4;overflow=hidden;rotatable=0;points=[[0,0.5],[1,0.5]];portConstraint=eastwest;" parent="UP2SmdmnmiDTw7j5yn1o-6" vertex="1">
                    <mxGeometry y="286" width="300" height="26" as="geometry"/>
                </mxCell>
                <mxCell id="UP2SmdmnmiDTw7j5yn1o-16" value="" style="line;html=1;strokeWidth=1;align=left;verticalAlign=middle;spacingTop=-1;spacingLeft=3;spacingRight=3;rotatable=0;labelPosition=right;points=[];portConstraint=eastwest;" parent="UP2SmdmnmiDTw7j5yn1o-6" vertex="1">
                    <mxGeometry y="312" width="300" height="8" as="geometry"/>
                </mxCell>
                <mxCell id="UP2SmdmnmiDTw7j5yn1o-17" value="__init__( p_scenario:Scenario, &#10;               p_run,&#10;               p_cycle_id,&#10;               p_path )" style="text;align=left;verticalAlign=top;spacingLeft=4;spacingRight=4;overflow=hidden;rotatable=0;points=[[0,0.5],[1,0.5]];portConstraint=eastwest;" parent="UP2SmdmnmiDTw7j5yn1o-6" vertex="1">
                    <mxGeometry y="320" width="300" height="64" as="geometry"/>
                </mxCell>
                <mxCell id="PYtmdeU6_NjjEdoNpoMM-25" value="add_custom_result( p_name, p_value )" style="text;align=left;verticalAlign=top;spacingLeft=4;spacingRight=4;overflow=hidden;rotatable=0;points=[[0,0.5],[1,0.5]];portConstraint=eastwest;" parent="UP2SmdmnmiDTw7j5yn1o-6" vertex="1">
                    <mxGeometry y="384" width="300" height="28" as="geometry"/>
                </mxCell>
                <mxCell id="PYtmdeU6_NjjEdoNpoMM-23" value="close()" style="text;align=left;verticalAlign=top;spacingLeft=4;spacingRight=4;overflow=hidden;rotatable=0;points=[[0,0.5],[1,0.5]];portConstraint=eastwest;" parent="UP2SmdmnmiDTw7j5yn1o-6" vertex="1">
                    <mxGeometry y="412" width="300" height="28" as="geometry"/>
                </mxCell>
                <mxCell id="hYbsXaRfB-yshdXqPI-c-3" value="load( p_path:str, p_filename:str )" style="text;align=left;verticalAlign=top;spacingLeft=4;spacingRight=4;overflow=hidden;rotatable=0;points=[[0,0.5],[1,0.5]];portConstraint=eastwest;fontColor=#808080;" parent="UP2SmdmnmiDTw7j5yn1o-6" vertex="1">
                    <mxGeometry y="440" width="300" height="26" as="geometry"/>
                </mxCell>
                <mxCell id="PYtmdeU6_NjjEdoNpoMM-27" value="_save_line( p_file, p_name, p_value )" style="text;align=left;verticalAlign=top;spacingLeft=4;spacingRight=4;overflow=hidden;rotatable=0;points=[[0,0.5],[1,0.5]];portConstraint=eastwest;" parent="UP2SmdmnmiDTw7j5yn1o-6" vertex="1">
                    <mxGeometry y="466" width="300" height="28" as="geometry"/>
                </mxCell>
                <mxCell id="PYtmdeU6_NjjEdoNpoMM-26" value="save( p_path, p_filename='summary.txt' )" style="text;align=left;verticalAlign=top;spacingLeft=4;spacingRight=4;overflow=hidden;rotatable=0;points=[[0,0.5],[1,0.5]];portConstraint=eastwest;" parent="UP2SmdmnmiDTw7j5yn1o-6" vertex="1">
                    <mxGeometry y="494" width="300" height="28" as="geometry"/>
                </mxCell>
                <mxCell id="UP2SmdmnmiDTw7j5yn1o-40" value="HyperParamTuner (bf.various.Persistent)" style="swimlane;fontStyle=3;align=center;verticalAlign=top;childLayout=stackLayout;horizontal=1;startSize=42;horizontalStack=0;resizeParent=1;resizeLast=0;collapsible=1;marginBottom=0;rounded=0;shadow=1;strokeWidth=1;fillColor=#dae8fc;strokeColor=#6c8ebf;swimlaneFillColor=#ffffff;gradientColor=#ffffff;" parent="WIyWlLk6GJQsqaUBKTNV-1" vertex="1">
                    <mxGeometry x="1400" y="1960" width="300" height="318" as="geometry">
                        <mxRectangle x="230" y="140" width="160" height="26" as="alternateBounds"/>
                    </mxGeometry>
                </mxCell>
                <mxCell id="UP2SmdmnmiDTw7j5yn1o-60" value="C_TYPE = 'HPT'" style="text;align=left;verticalAlign=top;spacingLeft=4;spacingRight=4;overflow=hidden;rotatable=0;points=[[0,0.5],[1,0.5]];portConstraint=eastwest;" parent="UP2SmdmnmiDTw7j5yn1o-40" vertex="1">
                    <mxGeometry y="42" width="300" height="26" as="geometry"/>
                </mxCell>
                <mxCell id="FmXNCEUKpYJ3uv0xe9kV-7" value="C_NAME = '????'" style="text;align=left;verticalAlign=top;spacingLeft=4;spacingRight=4;overflow=hidden;rotatable=0;points=[[0,0.5],[1,0.5]];portConstraint=eastwest;fontColor=#0000FF;" parent="UP2SmdmnmiDTw7j5yn1o-40" vertex="1">
                    <mxGeometry y="68" width="300" height="26" as="geometry"/>
                </mxCell>
                <mxCell id="FmXNCEUKpYJ3uv0xe9kV-6" value="C_VAR_TRIAL = 'Trial'" style="text;align=left;verticalAlign=top;spacingLeft=4;spacingRight=4;overflow=hidden;rotatable=0;points=[[0,0.5],[1,0.5]];portConstraint=eastwest;" parent="UP2SmdmnmiDTw7j5yn1o-40" vertex="1">
                    <mxGeometry y="94" width="300" height="26" as="geometry"/>
                </mxCell>
                <mxCell id="UP2SmdmnmiDTw7j5yn1o-61" value="C_VAR_SCORE = 'Highscore'" style="text;align=left;verticalAlign=top;spacingLeft=4;spacingRight=4;overflow=hidden;rotatable=0;points=[[0,0.5],[1,0.5]];portConstraint=eastwest;fontColor=#000000;" parent="UP2SmdmnmiDTw7j5yn1o-40" vertex="1">
                    <mxGeometry y="120" width="300" height="26" as="geometry"/>
                </mxCell>
                <mxCell id="UP2SmdmnmiDTw7j5yn1o-47" value="" style="line;html=1;strokeWidth=1;align=left;verticalAlign=middle;spacingTop=-1;spacingLeft=3;spacingRight=3;rotatable=0;labelPosition=right;points=[];portConstraint=eastwest;" parent="UP2SmdmnmiDTw7j5yn1o-40" vertex="1">
                    <mxGeometry y="146" width="300" height="8" as="geometry"/>
                </mxCell>
                <mxCell id="UP2SmdmnmiDTw7j5yn1o-71" value="maximize( p_training_cls, &#10;                 p_num_trials, &#10;                 p_root_path,&#10;                 **p_training_param) -&gt; TrainingResults" style="text;align=left;verticalAlign=top;spacingLeft=4;spacingRight=4;overflow=hidden;rotatable=0;points=[[0,0.5],[1,0.5]];portConstraint=eastwest;" parent="UP2SmdmnmiDTw7j5yn1o-40" vertex="1">
                    <mxGeometry y="154" width="300" height="66" as="geometry"/>
                </mxCell>
                <mxCell id="dl7jBH0QpKdt2L9IKGmV-32" value="_maximize( ) -&gt; TrainingResults" style="text;align=left;verticalAlign=top;spacingLeft=4;spacingRight=4;overflow=hidden;rotatable=0;points=[[0,0.5],[1,0.5]];portConstraint=eastwest;fontColor=#0000FF;" parent="UP2SmdmnmiDTw7j5yn1o-40" vertex="1">
                    <mxGeometry y="220" width="300" height="20" as="geometry"/>
                </mxCell>
                <mxCell id="hYbsXaRfB-yshdXqPI-c-2" value="load( p_path:str, p_filename:str )" style="text;align=left;verticalAlign=top;spacingLeft=4;spacingRight=4;overflow=hidden;rotatable=0;points=[[0,0.5],[1,0.5]];portConstraint=eastwest;fontColor=#808080;" parent="UP2SmdmnmiDTw7j5yn1o-40" vertex="1">
                    <mxGeometry y="240" width="300" height="26" as="geometry"/>
                </mxCell>
                <mxCell id="FmXNCEUKpYJ3uv0xe9kV-10" value="_save_line(p_file, p_name, p_value)" style="text;align=left;verticalAlign=top;spacingLeft=4;spacingRight=4;overflow=hidden;rotatable=0;points=[[0,0.5],[1,0.5]];portConstraint=eastwest;" parent="UP2SmdmnmiDTw7j5yn1o-40" vertex="1">
                    <mxGeometry y="266" width="300" height="26" as="geometry"/>
                </mxCell>
                <mxCell id="FmXNCEUKpYJ3uv0xe9kV-11" value="save(p_param, p_result, p_filename) -&gt; bool" style="text;align=left;verticalAlign=top;spacingLeft=4;spacingRight=4;overflow=hidden;rotatable=0;points=[[0,0.5],[1,0.5]];portConstraint=eastwest;" parent="UP2SmdmnmiDTw7j5yn1o-40" vertex="1">
                    <mxGeometry y="292" width="300" height="26" as="geometry"/>
                </mxCell>
                <mxCell id="__xDNqv_vZQiCEkt3bh0-10" style="edgeStyle=orthogonalEdgeStyle;rounded=0;orthogonalLoop=1;jettySize=auto;html=1;endArrow=block;endFill=1;exitX=0.5;exitY=0;exitDx=0;exitDy=0;" parent="WIyWlLk6GJQsqaUBKTNV-1" source="UP2SmdmnmiDTw7j5yn1o-20" target="ZXzUqIAL4igxPkpYoOi9-0" edge="1">
                    <mxGeometry relative="1" as="geometry"/>
                </mxCell>
                <mxCell id="UP2SmdmnmiDTw7j5yn1o-20" value="Scenario (bf.ops.ScenarioBase)" style="swimlane;fontStyle=3;align=center;verticalAlign=top;childLayout=stackLayout;horizontal=1;startSize=27;horizontalStack=0;resizeParent=1;resizeLast=0;collapsible=1;marginBottom=0;rounded=0;shadow=1;strokeWidth=3;fillColor=#dae8fc;strokeColor=#6c8ebf;gradientColor=#ffffff;swimlaneFillColor=#ffffff;" parent="WIyWlLk6GJQsqaUBKTNV-1" vertex="1">
                    <mxGeometry x="500" y="1320" width="300" height="470" as="geometry">
                        <mxRectangle x="230" y="140" width="160" height="26" as="alternateBounds"/>
                    </mxGeometry>
                </mxCell>
                <mxCell id="UP2SmdmnmiDTw7j5yn1o-27" value="C_TYPE = 'ML-Scenario'" style="text;align=left;verticalAlign=top;spacingLeft=4;spacingRight=4;overflow=hidden;rotatable=0;points=[[0,0.5],[1,0.5]];portConstraint=eastwest;" parent="UP2SmdmnmiDTw7j5yn1o-20" vertex="1">
                    <mxGeometry y="27" width="300" height="26" as="geometry"/>
                </mxCell>
                <mxCell id="UP2SmdmnmiDTw7j5yn1o-28" value="C_NAME = '????'" style="text;align=left;verticalAlign=top;spacingLeft=4;spacingRight=4;overflow=hidden;rotatable=0;points=[[0,0.5],[1,0.5]];portConstraint=eastwest;fontColor=#0000FF;" parent="UP2SmdmnmiDTw7j5yn1o-20" vertex="1">
                    <mxGeometry y="53" width="300" height="26" as="geometry"/>
                </mxCell>
                <mxCell id="dl7jBH0QpKdt2L9IKGmV-12" value="_model: Model" style="text;align=left;verticalAlign=top;spacingLeft=4;spacingRight=4;overflow=hidden;rotatable=0;points=[[0,0.5],[1,0.5]];portConstraint=eastwest;" parent="UP2SmdmnmiDTw7j5yn1o-20" vertex="1">
                    <mxGeometry y="79" width="300" height="26" as="geometry"/>
                </mxCell>
                <mxCell id="UP2SmdmnmiDTw7j5yn1o-25" value="" style="line;html=1;strokeWidth=1;align=left;verticalAlign=middle;spacingTop=-1;spacingLeft=3;spacingRight=3;rotatable=0;labelPosition=right;points=[];portConstraint=eastwest;" parent="UP2SmdmnmiDTw7j5yn1o-20" vertex="1">
                    <mxGeometry y="105" width="300" height="8" as="geometry"/>
                </mxCell>
                <mxCell id="f72OymnG5Jdyl8jaYfJm-5" value="__init__( p_mode=Mode.C_MODE_SIM,&#10;               p_ada=True, &#10;               p_cycle_limit=0,&#10;               p_visualize=True,&#10;               p_logging=Log.C_LOG_ALL )" style="text;align=left;verticalAlign=top;spacingLeft=4;spacingRight=4;overflow=hidden;rotatable=0;points=[[0,0.5],[1,0.5]];portConstraint=eastwest;" parent="UP2SmdmnmiDTw7j5yn1o-20" vertex="1">
                    <mxGeometry y="113" width="300" height="82" as="geometry"/>
                </mxCell>
                <mxCell id="PYtmdeU6_NjjEdoNpoMM-0" value="switch_logging( p_logging )" style="text;align=left;verticalAlign=top;spacingLeft=4;spacingRight=4;overflow=hidden;rotatable=0;points=[[0,0.5],[1,0.5]];portConstraint=eastwest;" parent="UP2SmdmnmiDTw7j5yn1o-20" vertex="1">
                    <mxGeometry y="195" width="300" height="24" as="geometry"/>
                </mxCell>
                <mxCell id="dl7jBH0QpKdt2L9IKGmV-11" value="_setup( p_mode, p_ada:bool, p_logging ) -&gt; Model" style="text;align=left;verticalAlign=top;spacingLeft=4;spacingRight=4;overflow=hidden;rotatable=0;points=[[0,0.5],[1,0.5]];portConstraint=eastwest;fontColor=#0000FF;" parent="UP2SmdmnmiDTw7j5yn1o-20" vertex="1">
                    <mxGeometry y="219" width="300" height="24" as="geometry"/>
                </mxCell>
                <mxCell id="GVWxCdjZFcxz5yg6jZ50-13" value="init_plot( p_figure=None )" style="text;align=left;verticalAlign=top;spacingLeft=4;spacingRight=4;overflow=hidden;rotatable=0;points=[[0,0.5],[1,0.5]];portConstraint=eastwest;" parent="UP2SmdmnmiDTw7j5yn1o-20" vertex="1">
                    <mxGeometry y="243" width="300" height="24" as="geometry"/>
                </mxCell>
                <mxCell id="GVWxCdjZFcxz5yg6jZ50-16" value="update_plot()" style="text;align=left;verticalAlign=top;spacingLeft=4;spacingRight=4;overflow=hidden;rotatable=0;points=[[0,0.5],[1,0.5]];portConstraint=eastwest;" parent="UP2SmdmnmiDTw7j5yn1o-20" vertex="1">
                    <mxGeometry y="267" width="300" height="24" as="geometry"/>
                </mxCell>
                <mxCell id="UP2SmdmnmiDTw7j5yn1o-37" value="get_model() -&gt; Model" style="text;align=left;verticalAlign=top;spacingLeft=4;spacingRight=4;overflow=hidden;rotatable=0;points=[[0,0.5],[1,0.5]];portConstraint=eastwest;" parent="UP2SmdmnmiDTw7j5yn1o-20" vertex="1">
                    <mxGeometry y="291" width="300" height="26" as="geometry"/>
                </mxCell>
                <mxCell id="UP2SmdmnmiDTw7j5yn1o-29" value="reset( p_seed=1 )" style="text;align=left;verticalAlign=top;spacingLeft=4;spacingRight=4;overflow=hidden;rotatable=0;points=[[0,0.5],[1,0.5]];portConstraint=eastwest;" parent="UP2SmdmnmiDTw7j5yn1o-20" vertex="1">
                    <mxGeometry y="317" width="300" height="30" as="geometry"/>
                </mxCell>
                <mxCell id="hYbsXaRfB-yshdXqPI-c-0" value="_reduce_state( p_state:dict, &#10;                         p_path:str, &#10;                         p_os_sep:str,&#10;                         p_filename_stub:str )" style="text;align=left;verticalAlign=top;spacingLeft=4;spacingRight=4;overflow=hidden;rotatable=0;points=[[0,0.5],[1,0.5]];portConstraint=eastwest;" parent="UP2SmdmnmiDTw7j5yn1o-20" vertex="1">
                    <mxGeometry y="347" width="300" height="68" as="geometry"/>
                </mxCell>
                <mxCell id="hYbsXaRfB-yshdXqPI-c-1" value="_complete_state( p_path:str, &#10;                             p_os_sep:str,&#10;                             p_filename_stub:str )" style="text;align=left;verticalAlign=top;spacingLeft=4;spacingRight=4;overflow=hidden;rotatable=0;points=[[0,0.5],[1,0.5]];portConstraint=eastwest;" parent="UP2SmdmnmiDTw7j5yn1o-20" vertex="1">
                    <mxGeometry y="415" width="300" height="54" as="geometry"/>
                </mxCell>
                <mxCell id="__xDNqv_vZQiCEkt3bh0-11" style="edgeStyle=orthogonalEdgeStyle;rounded=0;orthogonalLoop=1;jettySize=auto;html=1;endArrow=block;endFill=1;exitX=1;exitY=0.5;exitDx=0;exitDy=0;" parent="WIyWlLk6GJQsqaUBKTNV-1" source="PYtmdeU6_NjjEdoNpoMM-19" target="UP2SmdmnmiDTw7j5yn1o-6" edge="1">
                    <mxGeometry relative="1" as="geometry">
                        <Array as="points">
                            <mxPoint x="1280" y="1792"/>
                            <mxPoint x="1280" y="1545"/>
                        </Array>
                    </mxGeometry>
                </mxCell>
                <mxCell id="__xDNqv_vZQiCEkt3bh0-13" style="edgeStyle=orthogonalEdgeStyle;rounded=0;orthogonalLoop=1;jettySize=auto;html=1;endArrow=block;endFill=1;" parent="WIyWlLk6GJQsqaUBKTNV-1" source="UP2SmdmnmiDTw7j5yn1o-0" target="UP2SmdmnmiDTw7j5yn1o-20" edge="1">
                    <mxGeometry relative="1" as="geometry">
                        <mxPoint x="801" y="1705" as="targetPoint"/>
                    </mxGeometry>
                </mxCell>
                <mxCell id="UP2SmdmnmiDTw7j5yn1o-0" value="Training (bf.various.Log)" style="swimlane;fontStyle=3;align=center;verticalAlign=top;childLayout=stackLayout;horizontal=1;startSize=26;horizontalStack=0;resizeParent=1;resizeLast=0;collapsible=1;marginBottom=0;rounded=0;shadow=1;strokeWidth=3;fillColor=#dae8fc;strokeColor=#6c8ebf;gradientColor=#ffffff;swimlaneFillColor=#ffffff;" parent="WIyWlLk6GJQsqaUBKTNV-1" vertex="1">
                    <mxGeometry x="920" y="1320" width="300" height="870" as="geometry">
                        <mxRectangle x="230" y="140" width="160" height="26" as="alternateBounds"/>
                    </mxGeometry>
                </mxCell>
                <mxCell id="UP2SmdmnmiDTw7j5yn1o-1" value="C_TYPE = 'Training'" style="text;align=left;verticalAlign=top;spacingLeft=4;spacingRight=4;overflow=hidden;rotatable=0;points=[[0,0.5],[1,0.5]];portConstraint=eastwest;" parent="UP2SmdmnmiDTw7j5yn1o-0" vertex="1">
                    <mxGeometry y="26" width="300" height="26" as="geometry"/>
                </mxCell>
                <mxCell id="UP2SmdmnmiDTw7j5yn1o-2" value="C_NAME = '????'" style="text;align=left;verticalAlign=top;spacingLeft=4;spacingRight=4;overflow=hidden;rotatable=0;points=[[0,0.5],[1,0.5]];portConstraint=eastwest;fontColor=#0000FF;" parent="UP2SmdmnmiDTw7j5yn1o-0" vertex="1">
                    <mxGeometry y="52" width="300" height="26" as="geometry"/>
                </mxCell>
                <mxCell id="PYtmdeU6_NjjEdoNpoMM-20" value="C_CLS_RESULTS = TrainingResults" style="text;align=left;verticalAlign=top;spacingLeft=4;spacingRight=4;overflow=hidden;rotatable=0;points=[[0,0.5],[1,0.5]];portConstraint=eastwest;" parent="UP2SmdmnmiDTw7j5yn1o-0" vertex="1">
                    <mxGeometry y="78" width="300" height="26" as="geometry"/>
                </mxCell>
                <mxCell id="xcaQaqvuv9AdEiCgPE8b-0" value="C_MODE_TRAIN = 0" style="text;align=left;verticalAlign=top;spacingLeft=4;spacingRight=4;overflow=hidden;rotatable=0;points=[[0,0.5],[1,0.5]];portConstraint=eastwest;" parent="UP2SmdmnmiDTw7j5yn1o-0" vertex="1">
                    <mxGeometry y="104" width="300" height="26" as="geometry"/>
                </mxCell>
                <mxCell id="xcaQaqvuv9AdEiCgPE8b-1" value="C_MODE_EVAL = 1" style="text;align=left;verticalAlign=top;spacingLeft=4;spacingRight=4;overflow=hidden;rotatable=0;points=[[0,0.5],[1,0.5]];portConstraint=eastwest;" parent="UP2SmdmnmiDTw7j5yn1o-0" vertex="1">
                    <mxGeometry y="130" width="300" height="26" as="geometry"/>
                </mxCell>
                <mxCell id="n3NhlZLaFpn2-pY8zzA--0" value="_scenario:Scenario" style="text;align=left;verticalAlign=top;spacingLeft=4;spacingRight=4;overflow=hidden;rotatable=0;points=[[0,0.5],[1,0.5]];portConstraint=eastwest;" parent="UP2SmdmnmiDTw7j5yn1o-0" vertex="1">
                    <mxGeometry y="156" width="300" height="26" as="geometry"/>
                </mxCell>
                <mxCell id="PYtmdeU6_NjjEdoNpoMM-31" value="_cycle_limit: int" style="text;align=left;verticalAlign=top;spacingLeft=4;spacingRight=4;overflow=hidden;rotatable=0;points=[[0,0.5],[1,0.5]];portConstraint=eastwest;" parent="UP2SmdmnmiDTw7j5yn1o-0" vertex="1">
                    <mxGeometry y="182" width="300" height="26" as="geometry"/>
                </mxCell>
                <mxCell id="__xDNqv_vZQiCEkt3bh0-1" value="_adaptation_limit: int" style="text;align=left;verticalAlign=top;spacingLeft=4;spacingRight=4;overflow=hidden;rotatable=0;points=[[0,0.5],[1,0.5]];portConstraint=eastwest;" parent="UP2SmdmnmiDTw7j5yn1o-0" vertex="1">
                    <mxGeometry y="208" width="300" height="26" as="geometry"/>
                </mxCell>
                <mxCell id="n3NhlZLaFpn2-pY8zzA--2" value="_hpt: HyperParamTuner" style="text;align=left;verticalAlign=top;spacingLeft=4;spacingRight=4;overflow=hidden;rotatable=0;points=[[0,0.5],[1,0.5]];portConstraint=eastwest;" parent="UP2SmdmnmiDTw7j5yn1o-0" vertex="1">
                    <mxGeometry y="234" width="300" height="26" as="geometry"/>
                </mxCell>
                <mxCell id="n3NhlZLaFpn2-pY8zzA--3" value="_hpt_trials: int" style="text;align=left;verticalAlign=top;spacingLeft=4;spacingRight=4;overflow=hidden;rotatable=0;points=[[0,0.5],[1,0.5]];portConstraint=eastwest;" parent="UP2SmdmnmiDTw7j5yn1o-0" vertex="1">
                    <mxGeometry y="260" width="300" height="26" as="geometry"/>
                </mxCell>
                <mxCell id="PYtmdeU6_NjjEdoNpoMM-14" value="_root_path: str" style="text;align=left;verticalAlign=top;spacingLeft=4;spacingRight=4;overflow=hidden;rotatable=0;points=[[0,0.5],[1,0.5]];portConstraint=eastwest;" parent="UP2SmdmnmiDTw7j5yn1o-0" vertex="1">
                    <mxGeometry y="286" width="300" height="24" as="geometry"/>
                </mxCell>
                <mxCell id="xcaQaqvuv9AdEiCgPE8b-2" value="_mode" style="text;align=left;verticalAlign=top;spacingLeft=4;spacingRight=4;overflow=hidden;rotatable=0;points=[[0,0.5],[1,0.5]];portConstraint=eastwest;" parent="UP2SmdmnmiDTw7j5yn1o-0" vertex="1">
                    <mxGeometry y="310" width="300" height="26" as="geometry"/>
                </mxCell>
                <mxCell id="n3NhlZLaFpn2-pY8zzA--1" value="_num_cycles: int" style="text;align=left;verticalAlign=top;spacingLeft=4;spacingRight=4;overflow=hidden;rotatable=0;points=[[0,0.5],[1,0.5]];portConstraint=eastwest;" parent="UP2SmdmnmiDTw7j5yn1o-0" vertex="1">
                    <mxGeometry y="336" width="300" height="26" as="geometry"/>
                </mxCell>
                <mxCell id="__xDNqv_vZQiCEkt3bh0-0" value="_num_adaptations: int" style="text;align=left;verticalAlign=top;spacingLeft=4;spacingRight=4;overflow=hidden;rotatable=0;points=[[0,0.5],[1,0.5]];portConstraint=eastwest;" parent="UP2SmdmnmiDTw7j5yn1o-0" vertex="1">
                    <mxGeometry y="362" width="300" height="26" as="geometry"/>
                </mxCell>
                <mxCell id="PYtmdeU6_NjjEdoNpoMM-16" value="_current_path: str" style="text;align=left;verticalAlign=top;spacingLeft=4;spacingRight=4;overflow=hidden;rotatable=0;points=[[0,0.5],[1,0.5]];portConstraint=eastwest;" parent="UP2SmdmnmiDTw7j5yn1o-0" vertex="1">
                    <mxGeometry y="388" width="300" height="24" as="geometry"/>
                </mxCell>
                <mxCell id="PYtmdeU6_NjjEdoNpoMM-17" value="_current_run: int" style="text;align=left;verticalAlign=top;spacingLeft=4;spacingRight=4;overflow=hidden;rotatable=0;points=[[0,0.5],[1,0.5]];portConstraint=eastwest;" parent="UP2SmdmnmiDTw7j5yn1o-0" vertex="1">
                    <mxGeometry y="412" width="300" height="24" as="geometry"/>
                </mxCell>
                <mxCell id="dl7jBH0QpKdt2L9IKGmV-31" value="_results: TrainingResults" style="text;align=left;verticalAlign=top;spacingLeft=4;spacingRight=4;overflow=hidden;rotatable=0;points=[[0,0.5],[1,0.5]];portConstraint=eastwest;" parent="UP2SmdmnmiDTw7j5yn1o-0" vertex="1">
                    <mxGeometry y="436" width="300" height="24" as="geometry"/>
                </mxCell>
                <mxCell id="PYtmdeU6_NjjEdoNpoMM-19" value="_best_results: TrainingResults" style="text;align=left;verticalAlign=top;spacingLeft=4;spacingRight=4;overflow=hidden;rotatable=0;points=[[0,0.5],[1,0.5]];portConstraint=eastwest;" parent="UP2SmdmnmiDTw7j5yn1o-0" vertex="1">
                    <mxGeometry y="460" width="300" height="24" as="geometry"/>
                </mxCell>
                <mxCell id="UP2SmdmnmiDTw7j5yn1o-3" value="" style="line;html=1;strokeWidth=1;align=left;verticalAlign=middle;spacingTop=-1;spacingLeft=3;spacingRight=3;rotatable=0;labelPosition=right;points=[];portConstraint=eastwest;" parent="UP2SmdmnmiDTw7j5yn1o-0" vertex="1">
                    <mxGeometry y="484" width="300" height="8" as="geometry"/>
                </mxCell>
                <mxCell id="UP2SmdmnmiDTw7j5yn1o-4" value="__init__( p_scenario_cls,&#10;               p_cycle_limit=0,&#10;               p_adaptation_limit=0,&#10;               p_hpt:HyperParamTuner=None,&#10;               p_hpt_trials=0,&#10;               p_path=None,&#10;               p_logging=Log.C_LOG_WE )" style="text;align=left;verticalAlign=top;spacingLeft=4;spacingRight=4;overflow=hidden;rotatable=0;points=[[0,0.5],[1,0.5]];portConstraint=eastwest;" parent="UP2SmdmnmiDTw7j5yn1o-0" vertex="1">
                    <mxGeometry y="492" width="300" height="110" as="geometry"/>
                </mxCell>
                <mxCell id="UP2SmdmnmiDTw7j5yn1o-36" value="get_scenario() -&gt; Scenario" style="text;align=left;verticalAlign=top;spacingLeft=4;spacingRight=4;overflow=hidden;rotatable=0;points=[[0,0.5],[1,0.5]];portConstraint=eastwest;" parent="UP2SmdmnmiDTw7j5yn1o-0" vertex="1">
                    <mxGeometry y="602" width="300" height="24" as="geometry"/>
                </mxCell>
                <mxCell id="PYtmdeU6_NjjEdoNpoMM-32" value="_gen_root_path( p_path ) -&gt; str" style="text;align=left;verticalAlign=top;spacingLeft=4;spacingRight=4;overflow=hidden;rotatable=0;points=[[0,0.5],[1,0.5]];portConstraint=eastwest;" parent="UP2SmdmnmiDTw7j5yn1o-0" vertex="1">
                    <mxGeometry y="626" width="300" height="24" as="geometry"/>
                </mxCell>
                <mxCell id="PYtmdeU6_NjjEdoNpoMM-15" value="_gen_current_path( p_root_path, p_run ) -&gt; str" style="text;align=left;verticalAlign=top;spacingLeft=4;spacingRight=4;overflow=hidden;rotatable=0;points=[[0,0.5],[1,0.5]];portConstraint=eastwest;" parent="UP2SmdmnmiDTw7j5yn1o-0" vertex="1">
                    <mxGeometry y="650" width="300" height="24" as="geometry"/>
                </mxCell>
                <mxCell id="PYtmdeU6_NjjEdoNpoMM-33" value="_init_results() -&gt; TrainingResults" style="text;align=left;verticalAlign=top;spacingLeft=4;spacingRight=4;overflow=hidden;rotatable=0;points=[[0,0.5],[1,0.5]];portConstraint=eastwest;" parent="UP2SmdmnmiDTw7j5yn1o-0" vertex="1">
                    <mxGeometry y="674" width="300" height="24" as="geometry"/>
                </mxCell>
                <mxCell id="PYtmdeU6_NjjEdoNpoMM-34" value="_close_results( p_results:TrainingResults )" style="text;align=left;verticalAlign=top;spacingLeft=4;spacingRight=4;overflow=hidden;rotatable=0;points=[[0,0.5],[1,0.5]];portConstraint=eastwest;" parent="UP2SmdmnmiDTw7j5yn1o-0" vertex="1">
                    <mxGeometry y="698" width="300" height="24" as="geometry"/>
                </mxCell>
                <mxCell id="UP2SmdmnmiDTw7j5yn1o-38" value="run_cycle() -&gt; bool" style="text;align=left;verticalAlign=top;spacingLeft=4;spacingRight=4;overflow=hidden;rotatable=0;points=[[0,0.5],[1,0.5]];portConstraint=eastwest;" parent="UP2SmdmnmiDTw7j5yn1o-0" vertex="1">
                    <mxGeometry y="722" width="300" height="24" as="geometry"/>
                </mxCell>
                <mxCell id="PYtmdeU6_NjjEdoNpoMM-13" value="_run_cycle() -&gt; bool" style="text;align=left;verticalAlign=top;spacingLeft=4;spacingRight=4;overflow=hidden;rotatable=0;points=[[0,0.5],[1,0.5]];portConstraint=eastwest;fontColor=#0000FF;" parent="UP2SmdmnmiDTw7j5yn1o-0" vertex="1">
                    <mxGeometry y="746" width="300" height="24" as="geometry"/>
                </mxCell>
                <mxCell id="PYtmdeU6_NjjEdoNpoMM-12" value="run() -&gt; TrainingResults" style="text;align=left;verticalAlign=top;spacingLeft=4;spacingRight=4;overflow=hidden;rotatable=0;points=[[0,0.5],[1,0.5]];portConstraint=eastwest;" parent="UP2SmdmnmiDTw7j5yn1o-0" vertex="1">
                    <mxGeometry y="770" width="300" height="24" as="geometry"/>
                </mxCell>
                <mxCell id="UP2SmdmnmiDTw7j5yn1o-5" value="_run() -&gt; TrainingResults" style="text;align=left;verticalAlign=top;spacingLeft=4;spacingRight=4;overflow=hidden;rotatable=0;points=[[0,0.5],[1,0.5]];portConstraint=eastwest;" parent="UP2SmdmnmiDTw7j5yn1o-0" vertex="1">
                    <mxGeometry y="794" width="300" height="24" as="geometry"/>
                </mxCell>
                <mxCell id="gRVNcI0d0RMYS2mO5zlW-0" value="get_training_path() -&gt; str" style="text;align=left;verticalAlign=top;spacingLeft=4;spacingRight=4;overflow=hidden;rotatable=0;points=[[0,0.5],[1,0.5]];portConstraint=eastwest;" parent="UP2SmdmnmiDTw7j5yn1o-0" vertex="1">
                    <mxGeometry y="818" width="300" height="26" as="geometry"/>
                </mxCell>
                <mxCell id="UP2SmdmnmiDTw7j5yn1o-18" value="get_results() -&gt; TrainingResults" style="text;align=left;verticalAlign=top;spacingLeft=4;spacingRight=4;overflow=hidden;rotatable=0;points=[[0,0.5],[1,0.5]];portConstraint=eastwest;" parent="UP2SmdmnmiDTw7j5yn1o-0" vertex="1">
                    <mxGeometry y="844" width="300" height="26" as="geometry"/>
                </mxCell>
                <mxCell id="zoPMUYXmq0lysCq5f9s5-1" style="edgeStyle=orthogonalEdgeStyle;rounded=0;orthogonalLoop=1;jettySize=auto;html=1;endArrow=block;endFill=1;" parent="WIyWlLk6GJQsqaUBKTNV-1" source="ZXzUqIAL4igxPkpYoOi9-0" target="O5edXU6aJBqtr2ZKTVR7-0" edge="1">
                    <mxGeometry relative="1" as="geometry"/>
                </mxCell>
                <mxCell id="zoPMUYXmq0lysCq5f9s5-2" style="edgeStyle=orthogonalEdgeStyle;rounded=0;orthogonalLoop=1;jettySize=auto;html=1;endArrow=block;endFill=1;" parent="WIyWlLk6GJQsqaUBKTNV-1" source="ZXzUqIAL4igxPkpYoOi9-0" target="O5edXU6aJBqtr2ZKTVR7-10" edge="1">
                    <mxGeometry relative="1" as="geometry"/>
                </mxCell>
                <mxCell id="zoPMUYXmq0lysCq5f9s5-3" style="edgeStyle=orthogonalEdgeStyle;rounded=0;orthogonalLoop=1;jettySize=auto;html=1;endArrow=block;endFill=1;" parent="WIyWlLk6GJQsqaUBKTNV-1" source="ZXzUqIAL4igxPkpYoOi9-0" target="O5edXU6aJBqtr2ZKTVR7-29" edge="1">
                    <mxGeometry relative="1" as="geometry"/>
                </mxCell>
                <mxCell id="ZXzUqIAL4igxPkpYoOi9-0" value="Model &#10;( bf.mt.Task, bf.various.ScientificObject)" style="swimlane;fontStyle=3;align=center;verticalAlign=top;childLayout=stackLayout;horizontal=1;startSize=40;horizontalStack=0;resizeParent=1;resizeLast=0;collapsible=1;marginBottom=0;rounded=0;shadow=1;strokeWidth=3;fillColor=#dae8fc;strokeColor=#6c8ebf;swimlaneFillColor=#ffffff;gradientColor=#FFFFFF;" parent="WIyWlLk6GJQsqaUBKTNV-1" vertex="1">
                    <mxGeometry x="500" y="400" width="300" height="801" as="geometry">
                        <mxRectangle x="230" y="140" width="160" height="26" as="alternateBounds"/>
                    </mxGeometry>
                </mxCell>
                <mxCell id="HlZ9MxOd9YC2utm6Yh5y-10" value="C_TYPE = 'Model'" style="text;align=left;verticalAlign=top;spacingLeft=4;spacingRight=4;overflow=hidden;rotatable=0;points=[[0,0.5],[1,0.5]];portConstraint=eastwest;fontColor=default;" parent="ZXzUqIAL4igxPkpYoOi9-0" vertex="1">
                    <mxGeometry y="40" width="300" height="26" as="geometry"/>
                </mxCell>
                <mxCell id="HlZ9MxOd9YC2utm6Yh5y-11" value="C_NAME = '????'" style="text;align=left;verticalAlign=top;spacingLeft=4;spacingRight=4;overflow=hidden;rotatable=0;points=[[0,0.5],[1,0.5]];portConstraint=eastwest;fontColor=#0000FF;" parent="ZXzUqIAL4igxPkpYoOi9-0" vertex="1">
                    <mxGeometry y="66" width="300" height="26" as="geometry"/>
                </mxCell>
                <mxCell id="XFyhEEVEhg4HmQudxkvx-0" value="C_BUFFER_CLS = Buffer" style="text;align=left;verticalAlign=top;spacingLeft=4;spacingRight=4;overflow=hidden;rotatable=0;points=[[0,0.5],[1,0.5]];portConstraint=eastwest;fontColor=#0000FF;" parent="ZXzUqIAL4igxPkpYoOi9-0" vertex="1">
                    <mxGeometry y="92" width="300" height="26" as="geometry"/>
                </mxCell>
                <mxCell id="6-YigFfA0hEBnxeu9uoP-0" value="C_SCIREF_TYPE = C_SCIREF_TYPE_NONE" style="text;align=left;verticalAlign=top;spacingLeft=4;spacingRight=4;overflow=hidden;rotatable=0;points=[[0,0.5],[1,0.5]];portConstraint=eastwest;fontColor=#0000FF;" parent="ZXzUqIAL4igxPkpYoOi9-0" vertex="1">
                    <mxGeometry y="118" width="300" height="26" as="geometry"/>
                </mxCell>
                <mxCell id="uYEDtyk4H2DeficxGdZd-0" value="C_EVENT_ADAPTED = 'ADAPTED'" style="text;align=left;verticalAlign=top;spacingLeft=4;spacingRight=4;overflow=hidden;rotatable=0;points=[[0,0.5],[1,0.5]];portConstraint=eastwest;fontColor=default;" parent="ZXzUqIAL4igxPkpYoOi9-0" vertex="1">
                    <mxGeometry y="144" width="300" height="26" as="geometry"/>
                </mxCell>
                <mxCell id="ZEyy9441mmB5EzuDGfuP-0" value="_adaptivity" style="text;align=left;verticalAlign=top;spacingLeft=4;spacingRight=4;overflow=hidden;rotatable=0;points=[[0,0.5],[1,0.5]];portConstraint=eastwest;" parent="ZXzUqIAL4igxPkpYoOi9-0" vertex="1">
                    <mxGeometry y="170" width="300" height="26" as="geometry"/>
                </mxCell>
                <mxCell id="fD5zGYF9S6ogF95RKltL-0" value="_adapted:bool" style="text;align=left;verticalAlign=top;spacingLeft=4;spacingRight=4;overflow=hidden;rotatable=0;points=[[0,0.5],[1,0.5]];portConstraint=eastwest;" parent="ZXzUqIAL4igxPkpYoOi9-0" vertex="1">
                    <mxGeometry y="196" width="300" height="26" as="geometry"/>
                </mxCell>
                <mxCell id="uZcWC5tJhuseFhsVsUBT-0" value="_model_param" style="text;align=left;verticalAlign=top;spacingLeft=4;spacingRight=4;overflow=hidden;rotatable=0;points=[[0,0.5],[1,0.5]];portConstraint=eastwest;" parent="ZXzUqIAL4igxPkpYoOi9-0" vertex="1">
                    <mxGeometry y="222" width="300" height="26" as="geometry"/>
                </mxCell>
                <mxCell id="O5edXU6aJBqtr2ZKTVR7-28" value="_hyperparam_space: HyperParamSpace" style="text;align=left;verticalAlign=top;spacingLeft=4;spacingRight=4;overflow=hidden;rotatable=0;points=[[0,0.5],[1,0.5]];portConstraint=eastwest;" parent="ZXzUqIAL4igxPkpYoOi9-0" vertex="1">
                    <mxGeometry y="248" width="300" height="26" as="geometry"/>
                </mxCell>
                <mxCell id="O5edXU6aJBqtr2ZKTVR7-16" value="_hyperparam_tupel: HyperParamTupel" style="text;align=left;verticalAlign=top;spacingLeft=4;spacingRight=4;overflow=hidden;rotatable=0;points=[[0,0.5],[1,0.5]];portConstraint=eastwest;" parent="ZXzUqIAL4igxPkpYoOi9-0" vertex="1">
                    <mxGeometry y="274" width="300" height="26" as="geometry"/>
                </mxCell>
                <mxCell id="XFyhEEVEhg4HmQudxkvx-1" value="_buffer" style="text;align=left;verticalAlign=top;spacingLeft=4;spacingRight=4;overflow=hidden;rotatable=0;points=[[0,0.5],[1,0.5]];portConstraint=eastwest;" parent="ZXzUqIAL4igxPkpYoOi9-0" vertex="1">
                    <mxGeometry y="300" width="300" height="26" as="geometry"/>
                </mxCell>
                <mxCell id="ZXzUqIAL4igxPkpYoOi9-1" value="" style="line;html=1;strokeWidth=1;align=left;verticalAlign=middle;spacingTop=-1;spacingLeft=3;spacingRight=3;rotatable=0;labelPosition=right;points=[];portConstraint=eastwest;" parent="ZXzUqIAL4igxPkpYoOi9-0" vertex="1">
                    <mxGeometry y="326" width="300" height="8" as="geometry"/>
                </mxCell>
                <mxCell id="ZXzUqIAL4igxPkpYoOi9-3" value="__init__( p_ada:bool=True, &#10;               p_buffer_size=0,&#10;               p_name : str = None,&#10;               p_range_max : int = C_RANGE_PROCESS,&#10;               p_autorun = Task.C_AUTORUN_NONE,&#10;               p_class_shared = None,&#10;               p_visualize:bool=False,&#10;               p_logging=Log.C_LOG_ALL,&#10;               **p_par )" style="text;align=left;verticalAlign=top;spacingLeft=4;spacingRight=4;overflow=hidden;rotatable=0;points=[[0,0.5],[1,0.5]];portConstraint=eastwest;" parent="ZXzUqIAL4igxPkpYoOi9-0" vertex="1">
                    <mxGeometry y="334" width="300" height="135" as="geometry"/>
                </mxCell>
                <mxCell id="O5edXU6aJBqtr2ZKTVR7-17" value="_init_hyperparam( **p_par )" style="text;align=left;verticalAlign=top;spacingLeft=4;spacingRight=4;overflow=hidden;rotatable=0;points=[[0,0.5],[1,0.5]];portConstraint=eastwest;fontColor=#0000FF;" parent="ZXzUqIAL4igxPkpYoOi9-0" vertex="1">
                    <mxGeometry y="469" width="300" height="24" as="geometry"/>
                </mxCell>
                <mxCell id="O5edXU6aJBqtr2ZKTVR7-18" value="get_hyperparam() -&gt; HyperParamTuple" style="text;align=left;verticalAlign=top;spacingLeft=4;spacingRight=4;overflow=hidden;rotatable=0;points=[[0,0.5],[1,0.5]];portConstraint=eastwest;" parent="ZXzUqIAL4igxPkpYoOi9-0" vertex="1">
                    <mxGeometry y="493" width="300" height="24" as="geometry"/>
                </mxCell>
                <mxCell id="4lesusAWmf0gSQvw1fNC-0" value="switch_adaptivity( p_ada )" style="text;align=left;verticalAlign=top;spacingLeft=4;spacingRight=4;overflow=hidden;rotatable=0;points=[[0,0.5],[1,0.5]];portConstraint=eastwest;" parent="ZXzUqIAL4igxPkpYoOi9-0" vertex="1">
                    <mxGeometry y="517" width="300" height="24" as="geometry"/>
                </mxCell>
                <mxCell id="HNIrjlCbSVBAgNBDEsOc-0" value="set_random_seed( p_seed=None )" style="text;align=left;verticalAlign=top;spacingLeft=4;spacingRight=4;overflow=hidden;rotatable=0;points=[[0,0.5],[1,0.5]];portConstraint=eastwest;fontColor=#0000FF;" parent="ZXzUqIAL4igxPkpYoOi9-0" vertex="1">
                    <mxGeometry y="541" width="300" height="24" as="geometry"/>
                </mxCell>
                <mxCell id="ZEyy9441mmB5EzuDGfuP-2" value="get_adapted() -&gt; bool" style="text;align=left;verticalAlign=top;spacingLeft=4;spacingRight=4;overflow=hidden;rotatable=0;points=[[0,0.5],[1,0.5]];portConstraint=eastwest;" parent="ZXzUqIAL4igxPkpYoOi9-0" vertex="1">
                    <mxGeometry y="565" width="300" height="24" as="geometry"/>
                </mxCell>
                <mxCell id="ZEyy9441mmB5EzuDGfuP-3" value="_set_adapted( p_adapted:bool )" style="text;align=left;verticalAlign=top;spacingLeft=4;spacingRight=4;overflow=hidden;rotatable=0;points=[[0,0.5],[1,0.5]];portConstraint=eastwest;" parent="ZXzUqIAL4igxPkpYoOi9-0" vertex="1">
                    <mxGeometry y="589" width="300" height="24" as="geometry"/>
                </mxCell>
                <mxCell id="4lesusAWmf0gSQvw1fNC-1" value="adapt( **p_kwargs ) -&gt; bool" style="text;align=left;verticalAlign=top;spacingLeft=4;spacingRight=4;overflow=hidden;rotatable=0;points=[[0,0.5],[1,0.5]];portConstraint=eastwest;" parent="ZXzUqIAL4igxPkpYoOi9-0" vertex="1">
                    <mxGeometry y="613" width="300" height="24" as="geometry"/>
                </mxCell>
                <mxCell id="ZEyy9441mmB5EzuDGfuP-1" value="_adapt( **p_kwargs ) -&gt; bool" style="text;align=left;verticalAlign=top;spacingLeft=4;spacingRight=4;overflow=hidden;rotatable=0;points=[[0,0.5],[1,0.5]];portConstraint=eastwest;fontColor=#0000FF;" parent="ZXzUqIAL4igxPkpYoOi9-0" vertex="1">
                    <mxGeometry y="637" width="300" height="24" as="geometry"/>
                </mxCell>
                <mxCell id="Qpmwj2LclpfNPnA7dPxE-1" value="adapt_on_event ( p_event_id : str, &#10;                             p_event_object : Event )" style="text;align=left;verticalAlign=top;spacingLeft=4;spacingRight=4;overflow=hidden;rotatable=0;points=[[0,0.5],[1,0.5]];portConstraint=eastwest;fontColor=default;" parent="ZXzUqIAL4igxPkpYoOi9-0" vertex="1">
                    <mxGeometry y="661" width="300" height="39" as="geometry"/>
                </mxCell>
                <mxCell id="Qpmwj2LclpfNPnA7dPxE-2" value="_adapt_on_event ( p_event_id : str, &#10;                               p_event_object : Event ) -&gt; bool" style="text;align=left;verticalAlign=top;spacingLeft=4;spacingRight=4;overflow=hidden;rotatable=0;points=[[0,0.5],[1,0.5]];portConstraint=eastwest;fontColor=#0000CC;" parent="ZXzUqIAL4igxPkpYoOi9-0" vertex="1">
                    <mxGeometry y="700" width="300" height="39" as="geometry"/>
                </mxCell>
                <mxCell id="FI4yekQxwqOX18AtDqTN-0" value="clear_buffer()" style="text;align=left;verticalAlign=top;spacingLeft=4;spacingRight=4;overflow=hidden;rotatable=0;points=[[0,0.5],[1,0.5]];portConstraint=eastwest;" parent="ZXzUqIAL4igxPkpYoOi9-0" vertex="1">
                    <mxGeometry y="739" width="300" height="24" as="geometry"/>
                </mxCell>
                <mxCell id="330284dK6M7hRjFieeY7-13" value="get_accuracy() -&gt; float" style="text;align=left;verticalAlign=top;spacingLeft=4;spacingRight=4;overflow=hidden;rotatable=0;points=[[0,0.5],[1,0.5]];portConstraint=eastwest;fontColor=#0000CC;" parent="ZXzUqIAL4igxPkpYoOi9-0" vertex="1">
                    <mxGeometry y="763" width="300" height="24" as="geometry"/>
                </mxCell>
                <mxCell id="__xDNqv_vZQiCEkt3bh0-14" style="edgeStyle=orthogonalEdgeStyle;rounded=0;orthogonalLoop=1;jettySize=auto;html=1;entryX=0;entryY=0.5;entryDx=0;entryDy=0;endArrow=block;endFill=1;" parent="WIyWlLk6GJQsqaUBKTNV-1" source="PYtmdeU6_NjjEdoNpoMM-19" target="UP2SmdmnmiDTw7j5yn1o-61" edge="1">
                    <mxGeometry relative="1" as="geometry">
                        <Array as="points">
                            <mxPoint x="1280" y="1792"/>
                            <mxPoint x="1280" y="2073"/>
                        </Array>
                    </mxGeometry>
                </mxCell>
                <mxCell id="qvPqaj1fL9JLTTd56POF-17" style="edgeStyle=orthogonalEdgeStyle;rounded=0;orthogonalLoop=1;jettySize=auto;html=1;fontColor=default;endArrow=block;endFill=0;" parent="WIyWlLk6GJQsqaUBKTNV-1" source="qvPqaj1fL9JLTTd56POF-11" target="O5edXU6aJBqtr2ZKTVR7-29" edge="1">
                    <mxGeometry relative="1" as="geometry"/>
                </mxCell>
                <mxCell id="qvPqaj1fL9JLTTd56POF-11" value=" HyperParamDispatcher (HyperParamTuple)" style="swimlane;fontStyle=3;align=center;verticalAlign=top;childLayout=stackLayout;horizontal=1;startSize=26;horizontalStack=0;resizeParent=1;resizeLast=0;collapsible=1;marginBottom=0;rounded=0;shadow=1;strokeWidth=1;fillColor=#dae8fc;strokeColor=#6c8ebf;gradientColor=#ffffff;swimlaneFillColor=#ffffff;" parent="WIyWlLk6GJQsqaUBKTNV-1" vertex="1">
                    <mxGeometry x="80" y="788" width="300" height="160" as="geometry">
                        <mxRectangle x="230" y="140" width="160" height="26" as="alternateBounds"/>
                    </mxGeometry>
                </mxCell>
                <mxCell id="qvPqaj1fL9JLTTd56POF-12" value="" style="line;html=1;strokeWidth=1;align=left;verticalAlign=middle;spacingTop=-1;spacingLeft=3;spacingRight=3;rotatable=0;labelPosition=right;points=[];portConstraint=eastwest;" parent="qvPqaj1fL9JLTTd56POF-11" vertex="1">
                    <mxGeometry y="26" width="300" height="8" as="geometry"/>
                </mxCell>
                <mxCell id="qvPqaj1fL9JLTTd56POF-13" value="__init__( p_set:Set )" style="text;align=left;verticalAlign=top;spacingLeft=4;spacingRight=4;overflow=hidden;rotatable=0;points=[[0,0.5],[1,0.5]];portConstraint=eastwest;" parent="qvPqaj1fL9JLTTd56POF-11" vertex="1">
                    <mxGeometry y="34" width="300" height="24" as="geometry"/>
                </mxCell>
                <mxCell id="qvPqaj1fL9JLTTd56POF-14" value="add_hp_tuple( p_hpt:HyperParamTuple )" style="text;align=left;verticalAlign=top;spacingLeft=4;spacingRight=4;overflow=hidden;rotatable=0;points=[[0,0.5],[1,0.5]];portConstraint=eastwest;" parent="qvPqaj1fL9JLTTd56POF-11" vertex="1">
                    <mxGeometry y="58" width="300" height="24" as="geometry"/>
                </mxCell>
                <mxCell id="qvPqaj1fL9JLTTd56POF-15" value="get_value( p_dim_id )" style="text;align=left;verticalAlign=top;spacingLeft=4;spacingRight=4;overflow=hidden;rotatable=0;points=[[0,0.5],[1,0.5]];portConstraint=eastwest;" parent="qvPqaj1fL9JLTTd56POF-11" vertex="1">
                    <mxGeometry y="82" width="300" height="24" as="geometry"/>
                </mxCell>
                <mxCell id="qvPqaj1fL9JLTTd56POF-18" value="set_value( p_dim_id, p_value )" style="text;align=left;verticalAlign=top;spacingLeft=4;spacingRight=4;overflow=hidden;rotatable=0;points=[[0,0.5],[1,0.5]];portConstraint=eastwest;" parent="qvPqaj1fL9JLTTd56POF-11" vertex="1">
                    <mxGeometry y="106" width="300" height="24" as="geometry"/>
                </mxCell>
                <mxCell id="qvPqaj1fL9JLTTd56POF-19" value="set_values( p_values )" style="text;align=left;verticalAlign=top;spacingLeft=4;spacingRight=4;overflow=hidden;rotatable=0;points=[[0,0.5],[1,0.5]];portConstraint=eastwest;" parent="qvPqaj1fL9JLTTd56POF-11" vertex="1">
                    <mxGeometry y="130" width="300" height="24" as="geometry"/>
                </mxCell>
                <mxCell id="y5KnsGL2UclVFIuUZY6L-0" value="" style="group" parent="WIyWlLk6GJQsqaUBKTNV-1" vertex="1" connectable="0">
                    <mxGeometry x="40" y="40" width="480" height="220" as="geometry"/>
                </mxCell>
                <mxCell id="y5KnsGL2UclVFIuUZY6L-1" value="&lt;font color=&quot;#000000&quot; size=&quot;1&quot;&gt;&lt;b style=&quot;font-size: 14px&quot;&gt;Legend:&lt;br&gt;&lt;/b&gt;&lt;/font&gt;&lt;br&gt;&lt;br&gt;&lt;br&gt;&lt;font color=&quot;#0000ff&quot; style=&quot;font-size: 6px&quot;&gt;&lt;br&gt;&lt;/font&gt;&lt;span style=&quot;color: rgb(0 , 0 , 0)&quot;&gt;&lt;font style=&quot;font-size: 4px&quot;&gt;&amp;nbsp; &amp;nbsp;&lt;/font&gt;&amp;nbsp;In progress&amp;nbsp; &amp;nbsp; &amp;nbsp; &amp;nbsp; &amp;nbsp; &amp;nbsp; In validation&amp;nbsp; &amp;nbsp; &amp;nbsp; &amp;nbsp; &amp;nbsp; &amp;nbsp;Ready to use&lt;/span&gt;&lt;font color=&quot;#000000&quot;&gt;&amp;nbsp;&lt;br&gt;&lt;/font&gt;&lt;font color=&quot;#0000ff&quot;&gt;&lt;br&gt;&lt;br&gt;&lt;br&gt;&lt;br&gt;&amp;nbsp;attribute / method()&amp;nbsp; &amp;nbsp; &amp;nbsp; &amp;nbsp; New public attribute/method to be implemented&lt;/font&gt;&lt;br&gt;&lt;font color=&quot;#000000&quot;&gt;&amp;nbsp;&lt;/font&gt;&lt;font color=&quot;#000000&quot;&gt;attribute / method()&lt;span&gt;&#9;&lt;/span&gt;&amp;nbsp; &amp;nbsp; &amp;nbsp; &amp;nbsp;New/inherited public attribute/method that is implemented here&lt;br&gt;&lt;/font&gt;&lt;font color=&quot;#0000ff&quot;&gt;&amp;nbsp;_attribute /&amp;nbsp;&lt;/font&gt;&lt;font color=&quot;#0000ff&quot;&gt;_method()&amp;nbsp; &amp;nbsp; New protected method/attribute to be implemented&lt;/font&gt;&lt;br&gt;&lt;font color=&quot;#000000&quot;&gt;&amp;nbsp;_attribute / _method()&amp;nbsp; &amp;nbsp; New/inherited protected Method that is implemented here&lt;br&gt;&lt;/font&gt;&lt;font color=&quot;#000000&quot;&gt;&lt;br&gt;&lt;br&gt;&lt;br&gt;&lt;br&gt;&lt;br&gt;&lt;/font&gt;" style="text;html=1;align=left;verticalAlign=top;whiteSpace=wrap;rounded=0;fontColor=#006600;strokeColor=#000000;shadow=1;fillColor=#ffffff;" parent="y5KnsGL2UclVFIuUZY6L-0" vertex="1">
                    <mxGeometry width="480" height="220" as="geometry"/>
                </mxCell>
                <mxCell id="y5KnsGL2UclVFIuUZY6L-2" value="Depends on" style="endArrow=block;html=1;labelPosition=right;verticalLabelPosition=middle;align=left;verticalAlign=middle;endFill=1;fontSize=12;" parent="y5KnsGL2UclVFIuUZY6L-0" edge="1">
                    <mxGeometry x="-1590" y="-2180" width="50" height="50" as="geometry">
                        <mxPoint x="9.99969696969697" y="120.00301587301601" as="sourcePoint"/>
                        <mxPoint x="54.84818181818173" y="120.00301587301601" as="targetPoint"/>
                        <mxPoint x="98" as="offset"/>
                        <Array as="points">
                            <mxPoint x="30" y="120"/>
                        </Array>
                    </mxGeometry>
                </mxCell>
                <mxCell id="y5KnsGL2UclVFIuUZY6L-3" value="Inherits from" style="endArrow=block;html=1;labelPosition=right;verticalLabelPosition=middle;align=left;verticalAlign=middle;endFill=0;fontSize=12;" parent="y5KnsGL2UclVFIuUZY6L-0" edge="1">
                    <mxGeometry x="-1590" y="-2180" width="50" height="50" as="geometry">
                        <mxPoint x="9.99969696969697" y="132.3846031746034" as="sourcePoint"/>
                        <mxPoint x="54.84818181818173" y="132.3846031746034" as="targetPoint"/>
                        <mxPoint x="98" y="1" as="offset"/>
                    </mxGeometry>
                </mxCell>
                <mxCell id="y5KnsGL2UclVFIuUZY6L-4" value="" style="swimlane;fontStyle=3;align=center;verticalAlign=top;childLayout=stackLayout;horizontal=1;startSize=26;horizontalStack=0;resizeParent=1;resizeLast=0;collapsible=1;marginBottom=0;rounded=0;shadow=1;strokeWidth=1;fillColor=#f8cecc;strokeColor=#b85450;gradientColor=#ffffff;swimlaneFillColor=#ffffff;" parent="y5KnsGL2UclVFIuUZY6L-0" vertex="1">
                    <mxGeometry x="10" y="40" width="40" height="34" as="geometry">
                        <mxRectangle x="230" y="140" width="160" height="26" as="alternateBounds"/>
                    </mxGeometry>
                </mxCell>
                <mxCell id="y5KnsGL2UclVFIuUZY6L-5" value="" style="line;html=1;strokeWidth=1;align=left;verticalAlign=middle;spacingTop=-1;spacingLeft=3;spacingRight=3;rotatable=0;labelPosition=right;points=[];portConstraint=eastwest;" parent="y5KnsGL2UclVFIuUZY6L-4" vertex="1">
                    <mxGeometry y="26" width="40" height="8" as="geometry"/>
                </mxCell>
                <mxCell id="y5KnsGL2UclVFIuUZY6L-6" value="" style="swimlane;fontStyle=3;align=center;verticalAlign=top;childLayout=stackLayout;horizontal=1;startSize=26;horizontalStack=0;resizeParent=1;resizeLast=0;collapsible=1;marginBottom=0;rounded=0;shadow=1;strokeWidth=1;fillColor=#fff2cc;strokeColor=#d6b656;gradientColor=#ffffff;swimlaneFillColor=#ffffff;" parent="y5KnsGL2UclVFIuUZY6L-0" vertex="1">
                    <mxGeometry x="110" y="40" width="40" height="34" as="geometry">
                        <mxRectangle x="230" y="140" width="160" height="26" as="alternateBounds"/>
                    </mxGeometry>
                </mxCell>
                <mxCell id="y5KnsGL2UclVFIuUZY6L-7" value="" style="line;html=1;strokeWidth=1;align=left;verticalAlign=middle;spacingTop=-1;spacingLeft=3;spacingRight=3;rotatable=0;labelPosition=right;points=[];portConstraint=eastwest;" parent="y5KnsGL2UclVFIuUZY6L-6" vertex="1">
                    <mxGeometry y="26" width="40" height="8" as="geometry"/>
                </mxCell>
                <mxCell id="y5KnsGL2UclVFIuUZY6L-8" value="" style="swimlane;fontStyle=3;align=center;verticalAlign=top;childLayout=stackLayout;horizontal=1;startSize=26;horizontalStack=0;resizeParent=1;resizeLast=0;collapsible=1;marginBottom=0;rounded=0;shadow=1;strokeWidth=1;fillColor=#dae8fc;strokeColor=#6c8ebf;gradientColor=#ffffff;swimlaneFillColor=#ffffff;" parent="y5KnsGL2UclVFIuUZY6L-0" vertex="1">
                    <mxGeometry x="210" y="40" width="40" height="34" as="geometry">
                        <mxRectangle x="230" y="140" width="160" height="26" as="alternateBounds"/>
                    </mxGeometry>
                </mxCell>
                <mxCell id="y5KnsGL2UclVFIuUZY6L-9" value="" style="line;html=1;strokeWidth=1;align=left;verticalAlign=middle;spacingTop=-1;spacingLeft=3;spacingRight=3;rotatable=0;labelPosition=right;points=[];portConstraint=eastwest;" parent="y5KnsGL2UclVFIuUZY6L-8" vertex="1">
                    <mxGeometry y="26" width="40" height="8" as="geometry"/>
                </mxCell>
                <mxCell id="pWb825mAZI2DxDqmKoyy-0" value="Central template class for all adaptive machine learning models in MLPro. It provides the following features:&lt;br&gt;&lt;br&gt;- Adaptivity (explicit / event based)&lt;br&gt;- Hyperparameter&lt;br&gt;- Data buffering&lt;br&gt;- Multitasking and event handling&lt;br&gt;- Usable as a task in a workflow&lt;br&gt;- loadable / saveable&lt;br&gt;&lt;br&gt;See parent classes for further custom options..." style="rounded=1;whiteSpace=wrap;html=1;fillColor=#fff2cc;strokeColor=#d6b656;shadow=1;fontStyle=1;align=left;verticalAlign=middle;spacingLeft=9;spacingRight=3;" parent="WIyWlLk6GJQsqaUBKTNV-1" vertex="1">
                    <mxGeometry x="780" y="220" width="240" height="200" as="geometry"/>
                </mxCell>
                <mxCell id="pWb825mAZI2DxDqmKoyy-1" value="Central template class for machine learning scenarios in MLPro.&lt;br&gt;&lt;br&gt;See class mlpro.bf.ops.Scenario for further details and custom methods." style="rounded=1;whiteSpace=wrap;html=1;fillColor=#fff2cc;strokeColor=#d6b656;shadow=1;fontStyle=1;align=left;verticalAlign=top;spacingLeft=2;" parent="WIyWlLk6GJQsqaUBKTNV-1" vertex="1">
                    <mxGeometry x="300" y="1244" width="220" height="90" as="geometry"/>
                </mxCell>
                <mxCell id="pWb825mAZI2DxDqmKoyy-2" value="Template class for&amp;nbsp; standardized machine learning training and hyperparamer tuning in MLPro." style="rounded=1;whiteSpace=wrap;html=1;fillColor=#fff2cc;strokeColor=#d6b656;shadow=1;fontStyle=1;align=left;verticalAlign=top;spacingLeft=2;" parent="WIyWlLk6GJQsqaUBKTNV-1" vertex="1">
                    <mxGeometry x="1200" y="1240" width="140" height="90" as="geometry"/>
                </mxCell>
                <mxCell id="tTAQENSdJZJP09zD3_8I-7" style="edgeStyle=orthogonalEdgeStyle;rounded=0;orthogonalLoop=1;jettySize=auto;html=1;endArrow=block;endFill=0;" parent="WIyWlLk6GJQsqaUBKTNV-1" source="tTAQENSdJZJP09zD3_8I-0" target="ZXzUqIAL4igxPkpYoOi9-0" edge="1">
                    <mxGeometry relative="1" as="geometry"/>
                </mxCell>
                <mxCell id="tTAQENSdJZJP09zD3_8I-0" value="AdaptiveFunction&#10;(bf.math.Function, Model)" style="swimlane;fontStyle=3;align=center;verticalAlign=top;childLayout=stackLayout;horizontal=1;startSize=40;horizontalStack=0;resizeParent=1;resizeLast=0;collapsible=1;marginBottom=0;rounded=0;shadow=1;strokeWidth=3;fillColor=#dae8fc;strokeColor=#6c8ebf;gradientColor=#ffffff;swimlaneFillColor=#ffffff;" parent="WIyWlLk6GJQsqaUBKTNV-1" vertex="1">
                    <mxGeometry x="920" y="945" width="300" height="256" as="geometry">
                        <mxRectangle x="230" y="140" width="160" height="26" as="alternateBounds"/>
                    </mxGeometry>
                </mxCell>
                <mxCell id="tTAQENSdJZJP09zD3_8I-1" value="C_TYPE = 'Adaptive Function'" style="text;align=left;verticalAlign=top;spacingLeft=4;spacingRight=4;overflow=hidden;rotatable=0;points=[[0,0.5],[1,0.5]];portConstraint=eastwest;" parent="tTAQENSdJZJP09zD3_8I-0" vertex="1">
                    <mxGeometry y="40" width="300" height="26" as="geometry"/>
                </mxCell>
                <mxCell id="tTAQENSdJZJP09zD3_8I-2" value="" style="line;html=1;strokeWidth=1;align=left;verticalAlign=middle;spacingTop=-1;spacingLeft=3;spacingRight=3;rotatable=0;labelPosition=right;points=[];portConstraint=eastwest;" parent="tTAQENSdJZJP09zD3_8I-0" vertex="1">
                    <mxGeometry y="66" width="300" height="8" as="geometry"/>
                </mxCell>
                <mxCell id="tTAQENSdJZJP09zD3_8I-5" value="__init__( p_input_space : MSpace,&#10;               p_output_space : MSpace,&#10;               p_output_elem_cls = Element, &#10;               p_ada:bool=True, &#10;               p_buffer_size=0,&#10;               p_name : str = None,&#10;               p_range_max : int = C_RANGE_PROCESS,&#10;               p_autorun = Task.C_AUTORUN_NONE,&#10;               p_class_shared = None,&#10;               p_visualize:bool=False,&#10;               p_logging=Log.C_LOG_ALL,&#10;               **p_par )" style="text;align=left;verticalAlign=top;spacingLeft=4;spacingRight=4;overflow=hidden;rotatable=0;points=[[0,0.5],[1,0.5]];portConstraint=eastwest;" parent="tTAQENSdJZJP09zD3_8I-0" vertex="1">
                    <mxGeometry y="74" width="300" height="180" as="geometry"/>
                </mxCell>
                <mxCell id="tTAQENSdJZJP09zD3_8I-6" value="Template class for adaptive mathematical functions." style="rounded=1;whiteSpace=wrap;html=1;fillColor=#fff2cc;strokeColor=#d6b656;shadow=1;fontStyle=1;align=left;verticalAlign=top;spacingLeft=2;" parent="WIyWlLk6GJQsqaUBKTNV-1" vertex="1">
                    <mxGeometry x="1200" y="895" width="140" height="60" as="geometry"/>
                </mxCell>
                <mxCell id="Qpmwj2LclpfNPnA7dPxE-0" value="Wrappers for 3rd-party packages&lt;br&gt;- Optuna&lt;br&gt;- Hyperopt&lt;br&gt;are available" style="rounded=1;whiteSpace=wrap;html=1;fillColor=#fff2cc;strokeColor=#d6b656;shadow=1;fontStyle=1;align=left;verticalAlign=top;spacingLeft=2;" parent="WIyWlLk6GJQsqaUBKTNV-1" vertex="1">
                    <mxGeometry x="1680" y="1890" width="120" height="90" as="geometry"/>
                </mxCell>
                <mxCell id="Qpmwj2LclpfNPnA7dPxE-7" style="edgeStyle=orthogonalEdgeStyle;rounded=0;orthogonalLoop=1;jettySize=auto;html=1;endArrow=block;endFill=0;" parent="WIyWlLk6GJQsqaUBKTNV-1" source="Qpmwj2LclpfNPnA7dPxE-3" target="ZXzUqIAL4igxPkpYoOi9-0" edge="1">
                    <mxGeometry relative="1" as="geometry"/>
                </mxCell>
                <mxCell id="Qpmwj2LclpfNPnA7dPxE-3" value="AWorkflow&#10;(Model, bf.mt.Workflow)" style="swimlane;fontStyle=3;align=center;verticalAlign=top;childLayout=stackLayout;horizontal=1;startSize=40;horizontalStack=0;resizeParent=1;resizeLast=0;collapsible=1;marginBottom=0;rounded=0;shadow=1;strokeWidth=3;fillColor=#dae8fc;strokeColor=#6c8ebf;swimlaneFillColor=#ffffff;gradientColor=#FFFFFF;" parent="WIyWlLk6GJQsqaUBKTNV-1" vertex="1">
                    <mxGeometry x="1080" y="400" width="300" height="356" as="geometry">
                        <mxRectangle x="230" y="140" width="160" height="26" as="alternateBounds"/>
                    </mxGeometry>
                </mxCell>
                <mxCell id="Qpmwj2LclpfNPnA7dPxE-4" value="C_TYPE = 'Adaptive Workflow'" style="text;align=left;verticalAlign=top;spacingLeft=4;spacingRight=4;overflow=hidden;rotatable=0;points=[[0,0.5],[1,0.5]];portConstraint=eastwest;" parent="Qpmwj2LclpfNPnA7dPxE-3" vertex="1">
                    <mxGeometry y="40" width="300" height="26" as="geometry"/>
                </mxCell>
                <mxCell id="Qpmwj2LclpfNPnA7dPxE-5" value="" style="line;html=1;strokeWidth=1;align=left;verticalAlign=middle;spacingTop=-1;spacingLeft=3;spacingRight=3;rotatable=0;labelPosition=right;points=[];portConstraint=eastwest;" parent="Qpmwj2LclpfNPnA7dPxE-3" vertex="1">
                    <mxGeometry y="66" width="300" height="8" as="geometry"/>
                </mxCell>
                <mxCell id="v_-UR9DFBK3BHSPj2LdC-0" value="__init__( p_name : str = None,&#10;               p_range_max : int = C_RANGE_THREAD,&#10;               p_autorun = Task.C_AUTORUN_NONE,&#10;               p_class_shared = Shared,&#10;               p_ada:bool=True,&#10;               p_visualize:bool=False,&#10;               p_logging=Log.C_LOG_ALL,&#10;               **p_kwargs )" style="text;align=left;verticalAlign=top;spacingLeft=4;spacingRight=4;overflow=hidden;rotatable=0;points=[[0,0.5],[1,0.5]];portConstraint=eastwest;" parent="Qpmwj2LclpfNPnA7dPxE-3" vertex="1">
                    <mxGeometry y="74" width="300" height="126" as="geometry"/>
                </mxCell>
                <mxCell id="Fm1NAIyZ7M2tIJtCjv8c-0" value="add_task( p_task : Task, p_pred_tasks : list )" style="text;align=left;verticalAlign=top;spacingLeft=4;spacingRight=4;overflow=hidden;rotatable=0;points=[[0,0.5],[1,0.5]];portConstraint=eastwest;fontColor=default;" parent="Qpmwj2LclpfNPnA7dPxE-3" vertex="1">
                    <mxGeometry y="200" width="300" height="26" as="geometry"/>
                </mxCell>
                <mxCell id="Qpmwj2LclpfNPnA7dPxE-10" value="switch_adaptivity( p_ada : bool )" style="text;align=left;verticalAlign=top;spacingLeft=4;spacingRight=4;overflow=hidden;rotatable=0;points=[[0,0.5],[1,0.5]];portConstraint=eastwest;fontColor=default;" parent="Qpmwj2LclpfNPnA7dPxE-3" vertex="1">
                    <mxGeometry y="226" width="300" height="26" as="geometry"/>
                </mxCell>
                <mxCell id="Qpmwj2LclpfNPnA7dPxE-11" value="set_random_seed( p_seed = None )" style="text;align=left;verticalAlign=top;spacingLeft=4;spacingRight=4;overflow=hidden;rotatable=0;points=[[0,0.5],[1,0.5]];portConstraint=eastwest;fontColor=default;" parent="Qpmwj2LclpfNPnA7dPxE-3" vertex="1">
                    <mxGeometry y="252" width="300" height="26" as="geometry"/>
                </mxCell>
                <mxCell id="Qpmwj2LclpfNPnA7dPxE-12" value="get_adapted() -&gt; bool" style="text;align=left;verticalAlign=top;spacingLeft=4;spacingRight=4;overflow=hidden;rotatable=0;points=[[0,0.5],[1,0.5]];portConstraint=eastwest;fontColor=default;" parent="Qpmwj2LclpfNPnA7dPxE-3" vertex="1">
                    <mxGeometry y="278" width="300" height="26" as="geometry"/>
                </mxCell>
                <mxCell id="Qpmwj2LclpfNPnA7dPxE-13" value="clear_buffer()" style="text;align=left;verticalAlign=top;spacingLeft=4;spacingRight=4;overflow=hidden;rotatable=0;points=[[0,0.5],[1,0.5]];portConstraint=eastwest;fontColor=default;" parent="Qpmwj2LclpfNPnA7dPxE-3" vertex="1">
                    <mxGeometry y="304" width="300" height="26" as="geometry"/>
                </mxCell>
                <mxCell id="Qpmwj2LclpfNPnA7dPxE-14" value="get_accuracy() -&gt; float" style="text;align=left;verticalAlign=top;spacingLeft=4;spacingRight=4;overflow=hidden;rotatable=0;points=[[0,0.5],[1,0.5]];portConstraint=eastwest;fontColor=default;" parent="Qpmwj2LclpfNPnA7dPxE-3" vertex="1">
                    <mxGeometry y="330" width="300" height="26" as="geometry"/>
                </mxCell>
                <mxCell id="Qpmwj2LclpfNPnA7dPxE-8" value="Template class for adaptive workflows." style="rounded=1;whiteSpace=wrap;html=1;fillColor=#fff2cc;strokeColor=#d6b656;shadow=1;fontStyle=1;align=left;verticalAlign=top;spacingLeft=2;" parent="WIyWlLk6GJQsqaUBKTNV-1" vertex="1">
                    <mxGeometry x="1360" y="360" width="140" height="50" as="geometry"/>
                </mxCell>
            </root>
        </mxGraphModel>
    </diagram>
</mxfile>